<?xml version="1.0" standalone="no"?>
<!DOCTYPE svg PUBLIC "-//W3C//DTD SVG 20010904//EN"
 "http://www.w3.org/TR/2001/REC-SVG-20010904/DTD/svg10.dtd">
<svg version="1.0" xmlns="http://www.w3.org/2000/svg"
 width="216.000000pt" height="216.000000pt" viewBox="0 0 216.000000 216.000000"
 preserveAspectRatio="xMidYMid meet">
<metadata>
Created by potrace 1.16, written by Peter Selinger 2001-2019
</metadata><g><rect x="0" y="0" width="216" height="216" fill="#ffffff" />
<g transform="translate(0.000000,216.000000) scale(0.050000,-0.050000)"
fill="#000000" stroke="none">
<path d="M420 3480 l0 -420 420 0 420 0 0 420 0 420 -420 0 -420 0 0 -420z
m720 0 l0 -300 -300 0 -300 0 0 300 0 300 300 0 300 0 0 -300z"/>
<path d="M660 3480 l0 -180 180 0 180 0 0 180 0 180 -180 0 -180 0 0 -180z"/>
<path d="M1380 3840 l0 -60 60 0 60 0 0 -60 0 -60 -60 0 -60 0 0 -180 0 -180
60 0 60 0 0 60 0 60 120 0 120 0 0 -60 0 -60 -60 0 -60 0 0 -300 0 -300 -60 0
-60 0 0 120 0 120 -60 0 -60 0 0 -120 0 -120 -120 0 -120 0 0 -60 0 -60 120 0
120 0 0 -120 0 -120 -60 0 -60 0 0 60 0 60 -120 0 -120 0 0 120 0 120 -60 0
-60 0 0 -60 0 -60 -60 0 -60 0 0 -60 0 -60 120 0 120 0 0 -60 0 -60 -120 0
-120 0 0 -60 0 -60 120 0 120 0 0 -120 0 -120 60 0 60 0 0 -60 0 -60 60 0 60
0 0 -60 0 -60 -180 0 -180 0 0 180 0 180 -60 0 -60 0 0 -120 0 -120 -60 0 -60
0 0 120 0 120 -60 0 -60 0 0 -60 0 -60 -60 0 -60 0 0 -60 0 -60 120 0 120 0 0
-120 0 -120 60 0 60 0 0 -60 0 -60 120 0 120 0 0 -60 0 -60 180 0 180 0 0 -60
0 -60 60 0 60 0 0 180 0 180 60 0 60 0 0 120 0 120 -120 0 -120 0 0 60 0 60
60 0 60 0 0 120 0 120 -60 0 -60 0 0 60 0 60 180 0 180 0 0 -120 0 -120 -60 0
-60 0 0 -60 0 -60 120 0 120 0 0 -60 0 -60 60 0 60 0 0 60 0 60 -60 0 -60 0 0
120 0 120 60 0 60 0 0 -60 0 -60 60 0 60 0 0 -180 0 -180 -60 0 -60 0 0 -180
0 -180 120 0 120 0 0 60 0 60 60 0 60 0 0 -120 0 -120 60 0 60 0 0 -60 0 -60
180 0 180 0 0 -120 0 -120 -60 0 -60 0 0 -60 0 -60 -60 0 -60 0 0 120 0 120
-60 0 -60 0 0 -120 0 -120 -60 0 -60 0 0 60 0 60 -60 0 -60 0 0 -60 0 -60 -60
0 -60 0 0 60 0 60 -60 0 -60 0 0 -60 0 -60 -60 0 -60 0 0 120 0 120 240 0 240
0 0 60 0 60 -60 0 -60 0 0 60 0 60 -60 0 -60 0 0 -60 0 -60 -180 0 -180 0 0
-60 0 -60 -60 0 -60 0 0 60 0 60 -60 0 -60 0 0 -120 0 -120 -60 0 -60 0 0
-240 0 -240 120 0 120 0 0 60 0 60 60 0 60 0 0 -60 0 -60 60 0 60 0 0 60 0 60
120 0 120 0 0 60 0 60 60 0 60 0 0 60 0 60 60 0 60 0 0 -60 0 -60 60 0 60 0 0
60 0 60 60 0 60 0 0 -60 0 -60 60 0 60 0 0 60 0 60 120 0 120 0 0 -60 0 -60
-60 0 -60 0 0 -60 0 -60 -120 0 -120 0 0 -60 0 -60 180 0 180 0 0 60 0 60 60
0 60 0 0 -60 0 -60 180 0 180 0 0 60 0 60 60 0 60 0 0 60 0 60 60 0 60 0 0
-120 0 -120 60 0 60 0 0 120 0 120 60 0 60 0 0 120 0 120 -60 0 -60 0 0 60 0
60 -120 0 -120 0 0 120 0 120 60 0 60 0 0 -60 0 -60 60 0 60 0 0 60 0 60 60 0
60 0 0 60 0 60 -120 0 -120 0 0 180 0 180 60 0 60 0 0 180 0 180 60 0 60 0 0
120 0 120 -120 0 -120 0 0 60 0 60 -120 0 -120 0 0 -60 0 -60 60 0 60 0 0
-120 0 -120 60 0 60 0 0 -120 0 -120 -60 0 -60 0 0 60 0 60 -60 0 -60 0 0 120
0 120 -60 0 -60 0 0 -60 0 -60 -120 0 -120 0 0 60 0 60 60 0 60 0 0 60 0 60
-60 0 -60 0 0 -60 0 -60 -60 0 -60 0 0 -60 0 -60 -60 0 -60 0 0 120 0 120 -60
0 -60 0 0 -60 0 -60 -60 0 -60 0 0 120 0 120 -60 0 -60 0 0 -60 0 -60 -120 0
-120 0 0 60 0 60 -60 0 -60 0 0 -120 0 -120 -60 0 -60 0 0 120 0 120 -60 0
-60 0 0 -60 0 -60 -60 0 -60 0 0 120 0 120 180 0 180 0 0 60 0 60 120 0 120 0
0 -60 0 -60 60 0 60 0 0 60 0 60 -60 0 -60 0 0 60 0 60 180 0 180 0 0 -60 0
-60 120 0 120 0 0 -60 0 -60 -120 0 -120 0 0 -60 0 -60 120 0 120 0 0 60 0 60
60 0 60 0 0 60 0 60 180 0 180 0 0 60 0 60 120 0 120 0 0 60 0 60 -180 0 -180
0 0 -60 0 -60 -120 0 -120 0 0 60 0 60 -60 0 -60 0 0 120 0 120 -60 0 -60 0 0
60 0 60 60 0 60 0 0 60 0 60 -60 0 -60 0 0 60 0 60 60 0 60 0 0 180 0 180
-240 0 -240 0 0 -60 0 -60 -60 0 -60 0 0 60 0 60 -240 0 -240 0 0 -60 0 -60
-60 0 -60 0 0 60 0 60 -60 0 -60 0 0 -60 0 -60 -60 0 -60 0 0 60 0 60 -60 0
-60 0 0 -60z m960 -180 l0 -120 60 0 60 0 0 120 0 120 60 0 60 0 0 -120 0
-120 60 0 60 0 0 120 0 120 60 0 60 0 0 -120 0 -120 -60 0 -60 0 0 -120 0
-120 -120 0 -120 0 0 60 0 60 -60 0 -60 0 0 -60 0 -60 -60 0 -60 0 0 -60 0
-60 60 0 60 0 0 -60 0 -60 -60 0 -60 0 0 -120 0 -120 -60 0 -60 0 0 60 0 60
-60 0 -60 0 0 120 0 120 -60 0 -60 0 0 -120 0 -120 -60 0 -60 0 0 120 0 120
60 0 60 0 0 60 0 60 60 0 60 0 0 120 0 120 -60 0 -60 0 0 -60 0 -60 -60 0 -60
0 0 120 0 120 180 0 180 0 0 60 0 60 120 0 120 0 0 -120z m240 -540 l0 -60 60
0 60 0 0 60 0 60 60 0 60 0 0 -60 0 -60 -60 0 -60 0 0 -60 0 -60 -60 0 -60 0
0 60 0 60 -60 0 -60 0 0 60 0 60 60 0 60 0 0 -60z m-720 -360 l0 -60 -60 0
-60 0 0 60 0 60 60 0 60 0 0 -60z m-600 -480 l0 -60 60 0 60 0 0 -60 0 -60
-60 0 -60 0 0 -60 0 -60 -60 0 -60 0 0 60 0 60 60 0 60 0 0 60 0 60 -120 0
-120 0 0 60 0 60 120 0 120 0 0 -60z m1320 -120 l0 -60 120 0 120 0 0 -180 0
-180 60 0 60 0 0 -60 0 -60 60 0 60 0 0 180 0 180 -60 0 -60 0 0 60 0 60 60 0
60 0 0 -60 0 -60 120 0 120 0 0 -60 0 -60 60 0 60 0 0 -60 0 -60 60 0 60 0 0
-120 0 -120 -120 0 -120 0 0 60 0 60 60 0 60 0 0 60 0 60 -60 0 -60 0 0 60 0
60 -60 0 -60 0 0 -120 0 -120 -60 0 -60 0 0 -60 0 -60 -120 0 -120 0 0 -120 0
-120 -60 0 -60 0 0 120 0 120 -60 0 -60 0 0 180 0 180 -60 0 -60 0 0 -60 0
-60 -60 0 -60 0 0 120 0 120 -60 0 -60 0 0 60 0 60 -60 0 -60 0 0 60 0 60 240
0 240 0 0 -60z m-1200 -600 l0 -60 -180 0 -180 0 0 60 0 60 180 0 180 0 0 -60z
m1080 0 l0 -60 -60 0 -60 0 0 60 0 60 60 0 60 0 0 -60z m120 -240 l0 -60 -60
0 -60 0 0 60 0 60 60 0 60 0 0 -60z m720 -120 l0 -180 -180 0 -180 0 0 180 0
180 180 0 180 0 0 -180z m240 -240 l0 -60 120 0 120 0 0 -120 0 -120 -60 0
-60 0 0 60 0 60 -60 0 -60 0 0 -60 0 -60 -60 0 -60 0 0 -60 0 -60 -180 0 -180
0 0 180 0 180 60 0 60 0 0 -120 0 -120 60 0 60 0 0 60 0 60 120 0 120 0 0 60
0 60 -60 0 -60 0 0 60 0 60 60 0 60 0 0 -60z m-1680 -300 l0 -120 -60 0 -60 0
0 60 0 60 -60 0 -60 0 0 60 0 60 120 0 120 0 0 -120z m240 60 l0 -60 -60 0
-60 0 0 60 0 60 60 0 60 0 0 -60z"/>
<path d="M2100 3420 l0 -120 -60 0 -60 0 0 -60 0 -60 60 0 60 0 0 -60 0 -60
60 0 60 0 0 60 0 60 -60 0 -60 0 0 60 0 60 60 0 60 0 0 60 0 60 60 0 60 0 0
60 0 60 -120 0 -120 0 0 -120z"/>
<path d="M2460 3480 l0 -60 60 0 60 0 0 60 0 60 -60 0 -60 0 0 -60z"/>
<path d="M2340 2040 l0 -60 60 0 60 0 0 60 0 60 -60 0 -60 0 0 -60z"/>
<path d="M2580 1920 l0 -60 60 0 60 0 0 60 0 60 -60 0 -60 0 0 -60z"/>
<path d="M2700 1560 l0 -60 60 0 60 0 0 60 0 60 -60 0 -60 0 0 -60z"/>
<path d="M3060 1200 l0 -60 60 0 60 0 0 60 0 60 -60 0 -60 0 0 -60z"/>
<path d="M3060 3480 l0 -420 420 0 420 0 0 420 0 420 -420 0 -420 0 0 -420z
m720 0 l0 -300 -300 0 -300 0 0 300 0 300 300 0 300 0 0 -300z"/>
<path d="M3300 3480 l0 -180 180 0 180 0 0 180 0 180 -180 0 -180 0 0 -180z"/>
<path d="M1380 3120 l0 -60 60 0 60 0 0 60 0 60 -60 0 -60 0 0 -60z"/>
<path d="M420 2880 l0 -60 120 0 120 0 0 -60 0 -60 60 0 60 0 0 60 0 60 60 0
60 0 0 60 0 60 -240 0 -240 0 0 -60z"/>
<path d="M1140 2880 l0 -60 60 0 60 0 0 60 0 60 -60 0 -60 0 0 -60z"/>
<path d="M3780 2820 l0 -120 -120 0 -120 0 0 -60 0 -60 120 0 120 0 0 -60 0
-60 60 0 60 0 0 60 0 60 -60 0 -60 0 0 60 0 60 60 0 60 0 0 120 0 120 -60 0
-60 0 0 -120z"/>
<path d="M420 2520 l0 -180 60 0 60 0 0 -60 0 -60 60 0 60 0 0 60 0 60 -60 0
-60 0 0 180 0 180 -60 0 -60 0 0 -180z"/>
<path d="M420 1680 l0 -60 60 0 60 0 0 60 0 60 -60 0 -60 0 0 -60z"/>
<path d="M1740 1560 l0 -60 -60 0 -60 0 0 -60 0 -60 60 0 60 0 0 60 0 60 60 0
60 0 0 60 0 60 -60 0 -60 0 0 -60z"/>
<path d="M540 1440 l0 -60 60 0 60 0 0 60 0 60 -60 0 -60 0 0 -60z"/>
<path d="M420 840 l0 -420 420 0 420 0 0 420 0 420 -420 0 -420 0 0 -420z
m720 0 l0 -300 -300 0 -300 0 0 300 0 300 300 0 300 0 0 -300z"/>
<path d="M660 840 l0 -180 180 0 180 0 0 180 0 180 -180 0 -180 0 0 -180z"/>
<path d="M2340 480 l0 -60 60 0 60 0 0 60 0 60 -60 0 -60 0 0 -60z"/>
</g>
</g></svg>
