<?xml version="1.0" standalone="no"?>
<!DOCTYPE svg PUBLIC "-//W3C//DTD SVG 20010904//EN"
 "http://www.w3.org/TR/2001/REC-SVG-20010904/DTD/svg10.dtd">
<svg version="1.0" xmlns="http://www.w3.org/2000/svg"
 width="288.000000pt" height="288.000000pt" viewBox="0 0 288.000000 288.000000"
 preserveAspectRatio="xMidYMid meet">

<g transform="translate(0.000000,288.000000) scale(0.100000,-0.100000)"
fill="#000000" stroke="none">
<path d="M280 2320 l0 -280 280 0 280 0 0 280 0 280 -280 0 -280 0 0 -280z
m480 0 l0 -200 -200 0 -200 0 0 200 0 200 200 0 200 0 0 -200z"/>
<path d="M440 2320 l0 -120 120 0 120 0 0 120 0 120 -120 0 -120 0 0 -120z"/>
<path d="M1160 2560 l0 -40 -80 0 -80 0 0 -40 0 -40 80 0 80 0 0 40 0 40 80 0
80 0 0 -40 0 -40 -40 0 -40 0 0 -80 0 -80 40 0 40 0 0 40 0 40 40 0 40 0 0 40
0 40 40 0 40 0 0 40 0 40 40 0 40 0 0 -80 0 -80 -40 0 -40 0 0 -40 0 -40 80 0
80 0 0 -40 0 -40 -40 0 -40 0 0 -80 0 -80 -40 0 -40 0 0 40 0 40 -40 0 -40 0
0 -80 0 -80 120 0 120 0 0 -80 0 -80 -40 0 -40 0 0 40 0 40 -40 0 -40 0 0 -40
0 -40 -40 0 -40 0 0 40 0 40 -80 0 -80 0 0 80 0 80 40 0 40 0 0 80 0 80 -80 0
-80 0 0 -40 0 -40 -40 0 -40 0 0 -80 0 -80 -40 0 -40 0 0 -80 0 -80 -40 0 -40
0 0 80 0 80 -120 0 -120 0 0 -40 0 -40 80 0 80 0 0 -40 0 -40 -40 0 -40 0 0
-40 0 -40 -40 0 -40 0 0 -160 0 -160 -40 0 -40 0 0 120 0 120 -40 0 -40 0 0
-80 0 -80 -40 0 -40 0 0 80 0 80 -40 0 -40 0 0 40 0 40 40 0 40 0 0 40 0 40
40 0 40 0 0 -40 0 -40 40 0 40 0 0 80 0 80 -80 0 -80 0 0 40 0 40 -80 0 -80 0
0 -280 0 -280 40 0 40 0 0 40 0 40 40 0 40 0 0 -40 0 -40 40 0 40 0 0 -120 0
-120 40 0 40 0 0 40 0 40 40 0 40 0 0 -80 0 -80 -80 0 -80 0 0 -80 0 -80 80 0
80 0 0 40 0 40 40 0 40 0 0 -40 0 -40 40 0 40 0 0 40 0 40 -40 0 -40 0 0 40 0
40 80 0 80 0 0 -40 0 -40 40 0 40 0 0 -40 0 -40 -40 0 -40 0 0 -120 0 -120 40
0 40 0 0 40 0 40 80 0 80 0 0 -40 0 -40 40 0 40 0 0 40 0 40 40 0 40 0 0 40 0
40 -80 0 -80 0 0 40 0 40 -40 0 -40 0 0 40 0 40 -40 0 -40 0 0 160 0 160 80 0
80 0 0 -40 0 -40 40 0 40 0 0 -40 0 -40 -80 0 -80 0 0 -40 0 -40 80 0 80 0 0
-80 0 -80 40 0 40 0 0 40 0 40 40 0 40 0 0 -80 0 -80 40 0 40 0 0 -40 0 -40
-40 0 -40 0 0 -40 0 -40 -40 0 -40 0 0 -40 0 -40 -40 0 -40 0 0 -40 0 -40 40
0 40 0 0 -40 0 -40 -40 0 -40 0 0 -80 0 -80 40 0 40 0 0 40 0 40 40 0 40 0 0
-40 0 -40 160 0 160 0 0 40 0 40 40 0 40 0 0 -40 0 -40 40 0 40 0 0 40 0 40
-40 0 -40 0 0 40 0 40 40 0 40 0 0 40 0 40 40 0 40 0 0 -120 0 -120 120 0 120
0 0 40 0 40 -80 0 -80 0 0 40 0 40 120 0 120 0 0 -40 0 -40 40 0 40 0 0 -40 0
-40 40 0 40 0 0 80 0 80 40 0 40 0 0 -40 0 -40 40 0 40 0 0 40 0 40 -40 0 -40
0 0 40 0 40 40 0 40 0 0 80 0 80 -40 0 -40 0 0 -80 0 -80 -40 0 -40 0 0 40 0
40 -40 0 -40 0 0 40 0 40 -40 0 -40 0 0 40 0 40 80 0 80 0 0 40 0 40 -40 0
-40 0 0 40 0 40 120 0 120 0 0 40 0 40 -120 0 -120 0 0 -40 0 -40 -40 0 -40 0
0 80 0 80 40 0 40 0 0 40 0 40 80 0 80 0 0 -40 0 -40 40 0 40 0 0 80 0 80 -80
0 -80 0 0 120 0 120 80 0 80 0 0 80 0 80 -40 0 -40 0 0 -40 0 -40 -40 0 -40 0
0 -40 0 -40 -80 0 -80 0 0 40 0 40 -40 0 -40 0 0 40 0 40 -80 0 -80 0 0 80 0
80 -40 0 -40 0 0 -80 0 -80 -40 0 -40 0 0 -40 0 -40 -40 0 -40 0 0 40 0 40
-40 0 -40 0 0 -40 0 -40 -40 0 -40 0 0 40 0 40 -40 0 -40 0 0 -40 0 -40 -40 0
-40 0 0 -80 0 -80 40 0 40 0 0 40 0 40 40 0 40 0 0 -40 0 -40 40 0 40 0 0 40
0 40 120 0 120 0 0 -40 0 -40 40 0 40 0 0 40 0 40 40 0 40 0 0 -80 0 -80 80 0
80 0 0 -40 0 -40 -160 0 -160 0 0 40 0 40 -40 0 -40 0 0 -40 0 -40 -40 0 -40
0 0 -40 0 -40 -80 0 -80 0 0 40 0 40 40 0 40 0 0 40 0 40 -40 0 -40 0 0 -40 0
-40 -200 0 -200 0 0 80 0 80 40 0 40 0 0 40 0 40 -120 0 -120 0 0 120 0 120
40 0 40 0 0 40 0 40 -40 0 -40 0 0 80 0 80 40 0 40 0 0 -40 0 -40 40 0 40 0 0
-40 0 -40 40 0 40 0 0 -40 0 -40 -40 0 -40 0 0 -40 0 -40 -40 0 -40 0 0 -40 0
-40 120 0 120 0 0 80 0 80 160 0 160 0 0 40 0 40 80 0 80 0 0 40 0 40 40 0 40
0 0 240 0 240 -40 0 -40 0 0 40 0 40 -80 0 -80 0 0 40 0 40 40 0 40 0 0 40 0
40 -40 0 -40 0 0 -40 0 -40 -40 0 -40 0 0 40 0 40 -120 0 -120 0 0 -40 0 -40
-40 0 -40 0 0 40 0 40 -80 0 -80 0 0 -40z m560 -160 l0 -40 80 0 80 0 0 -40 0
-40 -80 0 -80 0 0 40 0 40 -40 0 -40 0 0 40 0 40 40 0 40 0 0 -40z m0 -280 l0
-80 40 0 40 0 0 80 0 80 40 0 40 0 0 -160 0 -160 -80 0 -80 0 0 40 0 40 -40 0
-40 0 0 120 0 120 40 0 40 0 0 -80z m-480 -40 l0 -40 -40 0 -40 0 0 40 0 40
40 0 40 0 0 -40z m-800 -240 l0 -40 -40 0 -40 0 0 40 0 40 40 0 40 0 0 -40z
m640 -80 l0 -40 -40 0 -40 0 0 40 0 40 40 0 40 0 0 -40z m-240 -80 l0 -40 40
0 40 0 0 -40 0 -40 40 0 40 0 0 -120 0 -120 -40 0 -40 0 0 80 0 80 -80 0 -80
0 0 40 0 40 40 0 40 0 0 40 0 40 -40 0 -40 0 0 40 0 40 40 0 40 0 0 -40z
m1200 -80 l0 -40 -40 0 -40 0 0 40 0 40 40 0 40 0 0 -40z m240 -160 l0 -40 40
0 40 0 0 -40 0 -40 -40 0 -40 0 0 40 0 40 -40 0 -40 0 0 40 0 40 40 0 40 0 0
-40z m-1440 -80 l0 -40 -40 0 -40 0 0 40 0 40 40 0 40 0 0 -40z m0 -160 l0
-40 -40 0 -40 0 0 40 0 40 40 0 40 0 0 -40z m1520 0 l0 -40 -40 0 -40 0 0 40
0 40 40 0 40 0 0 -40z m-880 -120 l0 -80 80 0 80 0 0 40 0 40 -40 0 -40 0 0
40 0 40 40 0 40 0 0 -40 0 -40 40 0 40 0 0 -40 0 -40 40 0 40 0 0 40 0 40 40
0 40 0 0 40 0 40 40 0 40 0 0 -40 0 -40 40 0 40 0 0 -40 0 -40 -120 0 -120 0
0 -40 0 -40 40 0 40 0 0 -40 0 -40 -40 0 -40 0 0 -160 0 -160 -80 0 -80 0 0
-40 0 -40 40 0 40 0 0 -40 0 -40 -120 0 -120 0 0 40 0 40 40 0 40 0 0 40 0 40
40 0 40 0 0 120 0 120 -40 0 -40 0 0 80 0 80 -40 0 -40 0 0 40 0 40 -40 0 -40
0 0 40 0 40 -80 0 -80 0 0 40 0 40 120 0 120 0 0 -80z m720 0 l0 -80 -40 0
-40 0 0 80 0 80 40 0 40 0 0 -80z m-1120 -200 l0 -40 -40 0 -40 0 0 40 0 40
40 0 40 0 0 -40z m1120 -80 l0 -120 -120 0 -120 0 0 120 0 120 120 0 120 0 0
-120z m80 -240 l0 -40 -160 0 -160 0 0 40 0 40 160 0 160 0 0 -40z"/>
<path d="M1640 880 l0 -120 40 0 40 0 0 40 0 40 40 0 40 0 0 40 0 40 -40 0
-40 0 0 40 0 40 -40 0 -40 0 0 -120z"/>
<path d="M2040 800 l0 -40 40 0 40 0 0 40 0 40 -40 0 -40 0 0 -40z"/>
<path d="M1880 2560 l0 -40 40 0 40 0 0 40 0 40 -40 0 -40 0 0 -40z"/>
<path d="M2040 2320 l0 -280 280 0 280 0 0 280 0 280 -280 0 -280 0 0 -280z
m480 0 l0 -200 -200 0 -200 0 0 200 0 200 200 0 200 0 0 -200z"/>
<path d="M2200 2320 l0 -120 120 0 120 0 0 120 0 120 -120 0 -120 0 0 -120z"/>
<path d="M920 2280 l0 -80 80 0 80 0 0 40 0 40 -40 0 -40 0 0 40 0 40 -40 0
-40 0 0 -80z"/>
<path d="M920 2080 l0 -40 40 0 40 0 0 40 0 40 -40 0 -40 0 0 -40z"/>
<path d="M2200 1920 l0 -40 -40 0 -40 0 0 -80 0 -80 80 0 80 0 0 -40 0 -40 40
0 40 0 0 40 0 40 -40 0 -40 0 0 80 0 80 40 0 40 0 0 -40 0 -40 80 0 80 0 0 40
0 40 -80 0 -80 0 0 40 0 40 -80 0 -80 0 0 -40z"/>
<path d="M2520 1360 l0 -40 40 0 40 0 0 40 0 40 -40 0 -40 0 0 -40z"/>
<path d="M280 1080 l0 -160 40 0 40 0 0 80 0 80 40 0 40 0 0 80 0 80 -80 0
-80 0 0 -160z"/>
<path d="M280 560 l0 -280 280 0 280 0 0 280 0 280 -280 0 -280 0 0 -280z
m480 0 l0 -200 -200 0 -200 0 0 200 0 200 200 0 200 0 0 -200z"/>
<path d="M440 560 l0 -120 120 0 120 0 0 120 0 120 -120 0 -120 0 0 -120z"/>
<path d="M1000 520 l0 -80 -40 0 -40 0 0 -80 0 -80 40 0 40 0 0 80 0 80 40 0
40 0 0 40 0 40 40 0 40 0 0 40 0 40 -80 0 -80 0 0 -80z"/>
<path d="M1080 320 l0 -40 40 0 40 0 0 40 0 40 -40 0 -40 0 0 -40z"/>
</g>
</svg>
